<svg width="45" height="45" viewBox="0 0 45 45" fill="none" xmlns="http://www.w3.org/2000/svg">
<g clip-path="url(#clip0)">
<path d="M22.119 44.237C9.922 44.237 0 34.315 0 22.119C0 9.92301 9.922 0.00100708 22.119 0.00100708C34.316 0.00100708 44.238 9.92301 44.238 22.119C44.238 34.315 34.314 44.237 22.119 44.237ZM22.119 1.50101C10.75 1.50101 1.5 10.75 1.5 22.119C1.5 33.487 10.75 42.737 22.119 42.737C33.488 42.737 42.738 33.487 42.738 22.119C42.738 10.75 33.488 1.50101 22.119 1.50101Z" fill="white"/>
<path d="M24.667 29.884C24.475 29.884 24.283 29.812 24.137 29.664L16.809 22.33C16.517 22.037 16.517 21.562 16.809 21.269L24.137 13.936C24.43 13.643 24.905 13.643 25.198 13.936C25.491 14.229 25.491 14.704 25.198 14.997L18.4 21.8L25.198 28.605C25.49 28.898 25.49 29.374 25.198 29.666C25.051 29.812 24.859 29.884 24.667 29.884Z" fill="white"/>
</g>
<defs>
<clipPath id="clip0">
<rect width="44.238" height="44.238" fill="white"/>
</clipPath>
</defs>
</svg>
