<svg width="512" height="340" viewBox="0 0 512 340" fill="none" xmlns="http://www.w3.org/2000/svg">
<path d="M306 102.504L271.451 97.483L256 66.177L240.549 97.483L206 102.504L231 126.873L225.098 161.282L256 145.036L286.902 161.282L281 126.873L306 102.504Z" fill="white"/>
<path d="M166 102.504L131.451 97.483L116 66.177L100.549 97.483L66 102.504L91 126.873L85.098 161.282L116 145.036L146.902 161.282L141 126.873L166 102.504Z" fill="white"/>
<path d="M446 102.504L411.451 97.483L396 66.177L380.549 97.483L346 102.504L371 126.873L365.098 161.282L396 145.036L426.902 161.282L421 126.873L446 102.504Z" fill="white"/>
<path d="M0 0.72998V230.729H201.729L256 339.271L310.271 230.73H512V0.72998H0V0.72998ZM482 200.729H291.729L256 272.188L220.271 200.729H30V30.729H482V200.729Z" fill="white"/>
</svg>
