<svg width="55" height="55" viewBox="0 0 55 55" fill="none" xmlns="http://www.w3.org/2000/svg">
<path d="M1.94229 55H12.2696H42.7304H53.0577C54.1473 55 55 54.1473 55 53.0577V1.94229C55 0.852713 54.1473 0 53.0577 0H1.94229C0.852713 0 0 0.852713 0 1.94229V53.0577C0 54.1473 0.900086 55 1.94229 55V55ZM44.6727 3.88458H51.1154V12.7907H44.6727V3.88458V3.88458ZM44.6727 16.6753H51.1154V25.5814H49.0784H44.6253V16.6753H44.6727ZM44.7201 29.466H49.1731H51.2102V38.3721H44.7674V29.466H44.7201ZM44.6727 42.2567H51.1154V51.1628H44.6727V42.2567ZM14.2119 3.88458H40.7881V25.5814H14.2119V3.88458V3.88458ZM14.2119 29.466H40.7881V51.1628H14.2119V29.466V29.466ZM3.88458 3.88458H10.3273V12.7907H3.88458V3.88458V3.88458ZM3.88458 16.6753H10.3273V25.5814H3.88458V16.6753V16.6753ZM3.88458 29.466H10.3273V38.3721H3.88458V29.466V29.466ZM3.88458 42.2567H10.3273V51.1628H3.88458V42.2567V42.2567Z" fill="#336E6B"/>
</svg>
