<svg width="80" height="74" viewBox="0 0 80 74" fill="none" xmlns="http://www.w3.org/2000/svg">
<path d="M60 30V73.3333H0V30H60ZM16.6667 36.6667H6.66667V43.3333H16.6667V36.6667ZM53.3333 53.3333C53.3333 45.97 47.3633 40 40 40C32.6367 40 26.6667 45.97 26.6667 53.3333C26.6667 60.6967 32.6367 66.6667 40 66.6667C47.3633 66.6667 53.3333 60.6967 53.3333 53.3333ZM40 46.6667C36.32 46.6667 33.3333 49.6567 33.3333 53.3333C33.3333 57.01 36.32 60 40 60C43.68 60 46.6667 57.01 46.6667 53.3333C46.6667 49.6567 43.68 46.6667 40 46.6667ZM22.2867 23.3333L27.67 8.54333L71.5167 24.5067L66.6667 37.84V57.3333L80 20.5267L23.6833 0L15.19 23.3333H22.2867Z" fill="#336E6B" fill-opacity="0.9"/>
</svg>
