<svg width="35" height="34" viewBox="0 0 35 34" fill="none" xmlns="http://www.w3.org/2000/svg">
<g clip-path="url(#clip0)">
<path d="M23.5419 2.79762L32.0833 10.9918V22.5796L23.5419 30.7738H11.4581L2.91667 22.5796V10.9918L11.4581 2.79762H23.5419V2.79762ZM24.7494 0H10.2506L0 9.83223V23.7378L10.2506 33.5714H24.7479L35 23.7392V9.83223L24.7494 0ZM15.3125 8.39286H19.6875L18.2292 19.5833H16.7708L15.3125 8.39286ZM17.5 25.5283C16.4938 25.5283 15.6771 24.7449 15.6771 23.7798C15.6771 22.8146 16.4938 22.0313 17.5 22.0313C18.5063 22.0313 19.3229 22.8146 19.3229 23.7798C19.3229 24.7449 18.5063 25.5283 17.5 25.5283Z" fill="#DD2E44"/>
</g>
<defs>
<clipPath id="clip0">
<rect width="35" height="33.5714" fill="white"/>
</clipPath>
</defs>
</svg>
