<svg width="200" height="200" viewBox="0 0 200 200" fill="none" xmlns="http://www.w3.org/2000/svg">
<path d="M100 12.5C148.75 12.5 187.5 51.25 187.5 100C187.5 148.75 148.75 187.5 100 187.5C51.25 187.5 12.5 148.75 12.5 100C12.5 51.25 51.25 12.5 100 12.5ZM100 0C45 0 0 45 0 100C0 155 45 200 100 200C155 200 200 155 200 100C200 45 155 0 100 0Z" fill="white"/>
<path d="M87.5 75C87.5 81.9 81.9 87.5 75 87.5C68.1 87.5 62.5 81.9 62.5 75C62.5 68.1 68.1 62.5 75 62.5C81.9 62.5 87.5 68.1 87.5 75Z" fill="white"/>
<path d="M137.5 75C137.5 81.9 131.9 87.5 125 87.5C118.1 87.5 112.5 81.9 112.5 75C112.5 68.1 118.1 62.5 125 62.5C131.9 62.5 137.5 68.1 137.5 75Z" fill="white"/>
<path d="M141.25 153.75C132.5 140 116.25 131.25 100 131.25C83.7503 131.25 67.5003 140 58.7503 153.75L48.7503 146.25C60.0003 128.75 78.7503 118.75 100 118.75C121.25 118.75 140 128.75 151.25 146.25L141.25 153.75Z" fill="white"/>
</svg>
