<svg width="15" height="15" viewBox="0 0 15 15" fill="none" xmlns="http://www.w3.org/2000/svg">
<path d="M0.173077 8.07693C0.0576923 7.96154 0 7.78847 0 7.67308C0 7.5577 0.0576923 7.38462 0.173077 7.26924L0.980769 6.46154C1.21154 6.23077 1.55769 6.23077 1.78846 6.46154L1.84615 6.51924L5.01923 9.92308C5.13462 10.0385 5.30769 10.0385 5.42308 9.92308L13.1538 1.90385H13.2115V1.90385C13.4423 1.67308 13.7885 1.67308 14.0192 1.90385L14.8269 2.71154C15.0577 2.94231 15.0577 3.28847 14.8269 3.51924L5.59615 13.0962C5.48077 13.2115 5.36538 13.2692 5.19231 13.2692C5.01923 13.2692 4.90385 13.2115 4.78846 13.0962L0.288462 8.25L0.173077 8.07693V8.07693Z" fill="#00912D"/>
</svg>
