<svg width="15" height="15" viewBox="0 0 15 15" fill="none" xmlns="http://www.w3.org/2000/svg">
<g clip-path="url(#clip0)">
<path d="M9.11164 7.49352L14.6672 1.938C15.1108 1.49478 15.1108 0.775927 14.6672 0.332746C14.2239 -0.110913 13.5056 -0.110913 13.0619 0.332746L7.50635 5.88827L1.95034 0.332706C1.5076 -0.110953 0.788265 -0.110953 0.345084 0.332706C-0.0981374 0.775927 -0.0981374 1.49478 0.345084 1.93796L5.90109 7.49352L0.332791 13.0618C-0.110869 13.5055 -0.110869 14.2239 0.332791 14.6671C0.554381 14.8891 0.845019 14.9999 1.13566 14.9999C1.42582 14.9999 1.71645 14.8891 1.93808 14.6671L7.50635 9.09882L13.0619 14.6544C13.284 14.876 13.5741 14.9872 13.8648 14.9872C14.1549 14.9872 14.4456 14.876 14.6672 14.6544C15.1109 14.2112 15.1109 13.4928 14.6672 13.0491L9.11164 7.49352Z" fill="#DD2E44"/>
</g>
<defs>
<clipPath id="clip0">
<rect width="15" height="15" fill="white"/>
</clipPath>
</defs>
</svg>
