<svg width="45" height="45" viewBox="0 0 45 45" fill="none" xmlns="http://www.w3.org/2000/svg">
<g clip-path="url(#clip0)">
<path d="M22.119 44.237C34.316 44.237 44.238 34.315 44.238 22.119C44.238 9.92301 34.316 0.00100708 22.119 0.00100708C9.92204 0.00100708 3.8147e-05 9.92301 3.8147e-05 22.119C3.8147e-05 34.315 9.92404 44.237 22.119 44.237ZM22.119 1.50101C33.488 1.50101 42.738 10.75 42.738 22.119C42.738 33.487 33.488 42.737 22.119 42.737C10.75 42.737 1.50004 33.487 1.50004 22.119C1.50004 10.75 10.75 1.50101 22.119 1.50101Z" fill="white"/>
<path d="M19.5711 29.884C19.7631 29.884 19.9551 29.812 20.1011 29.664L27.4291 22.33C27.7211 22.037 27.7211 21.562 27.4291 21.269L20.1011 13.936C19.8081 13.643 19.3331 13.643 19.0401 13.936C18.7471 14.229 18.7471 14.704 19.0401 14.997L25.8381 21.8L19.0401 28.605C18.7481 28.898 18.7481 29.374 19.0401 29.666C19.1871 29.812 19.3791 29.884 19.5711 29.884Z" fill="white"/>
</g>
<defs>
<clipPath id="clip0">
<rect width="44.238" height="44.238" fill="white" transform="matrix(-1 0 0 1 44.238 0)"/>
</clipPath>
</defs>
</svg>
