<svg width="20" height="20" viewBox="0 0 20 20" fill="none" xmlns="http://www.w3.org/2000/svg">
<path d="M9.99821 0C4.47631 0 0 4.47774 0 10.0004C0 15.5223 4.47631 20 9.99821 20C15.523 20 20 15.5215 20 10.0004C20 4.47774 15.523 0 9.99821 0ZM14.2979 12.708L12.7052 14.2986C12.7052 14.2986 10.1856 11.5952 9.9975 11.5952C9.81227 11.5952 7.29197 14.2986 7.29197 14.2986L5.69855 12.708C5.69855 12.708 8.40479 10.2249 8.40479 10.0039C8.40479 9.77937 5.69855 7.29555 5.69855 7.29555L7.29197 5.70141C7.29197 5.70141 9.83301 8.40622 9.9975 8.40622C10.1634 8.40622 12.7052 5.70141 12.7052 5.70141L14.2979 7.29555C14.2979 7.29555 11.5909 9.81513 11.5909 10.0039C11.5909 10.1834 14.2979 12.708 14.2979 12.708Z" fill="white"/>
<path d="M9.99821 0C4.47631 0 0 4.47774 0 10.0004C0 15.5223 4.47631 20 9.99821 20C15.523 20 20 15.5215 20 10.0004C20 4.47774 15.523 0 9.99821 0ZM14.2979 12.708L12.7052 14.2986C12.7052 14.2986 10.1856 11.5952 9.9975 11.5952C9.81227 11.5952 7.29197 14.2986 7.29197 14.2986L5.69855 12.708C5.69855 12.708 8.40479 10.2249 8.40479 10.0039C8.40479 9.77937 5.69855 7.29555 5.69855 7.29555L7.29197 5.70141C7.29197 5.70141 9.83301 8.40622 9.9975 8.40622C10.1634 8.40622 12.7052 5.70141 12.7052 5.70141L14.2979 7.29555C14.2979 7.29555 11.5909 9.81513 11.5909 10.0039C11.5909 10.1834 14.2979 12.708 14.2979 12.708Z" fill="white"/>
<path d="M9.99821 0C4.47631 0 0 4.47774 0 10.0004C0 15.5223 4.47631 20 9.99821 20C15.523 20 20 15.5215 20 10.0004C20 4.47774 15.523 0 9.99821 0ZM14.2979 12.708L12.7052 14.2986C12.7052 14.2986 10.1856 11.5952 9.9975 11.5952C9.81227 11.5952 7.29197 14.2986 7.29197 14.2986L5.69855 12.708C5.69855 12.708 8.40479 10.2249 8.40479 10.0039C8.40479 9.77937 5.69855 7.29555 5.69855 7.29555L7.29197 5.70141C7.29197 5.70141 9.83301 8.40622 9.9975 8.40622C10.1634 8.40622 12.7052 5.70141 12.7052 5.70141L14.2979 7.29555C14.2979 7.29555 11.5909 9.81513 11.5909 10.0039C11.5909 10.1834 14.2979 12.708 14.2979 12.708Z" fill="white"/>
</svg>
