<svg width="35" height="35" viewBox="0 0 35 35" fill="none" xmlns="http://www.w3.org/2000/svg">
<path d="M17.5 29.5312C24.1447 29.5312 29.5312 24.1447 29.5312 17.5C29.5312 10.8553 24.1447 5.46875 17.5 5.46875C10.8553 5.46875 5.46875 10.8553 5.46875 17.5C5.46875 24.1447 10.8553 29.5312 17.5 29.5312Z" fill="#336E6B"/>
<path d="M17.5 4.375C10.2627 4.375 4.375 10.2627 4.375 17.5C4.375 24.7373 10.2627 30.625 17.5 30.625C24.7373 30.625 30.625 24.7373 30.625 17.5C30.625 10.2627 24.7373 4.375 17.5 4.375ZM17.5 28.4375C11.4691 28.4375 6.5625 23.5309 6.5625 17.5C6.5625 11.4691 11.4691 6.5625 17.5 6.5625C23.5309 6.5625 28.4375 11.4691 28.4375 17.5C28.4375 23.5309 23.5309 28.4375 17.5 28.4375Z" fill="#336E6B"/>
<path d="M21.5547 13.4455C21.1281 13.0183 20.4346 13.0183 20.0081 13.4455L17.5001 15.9534L14.9921 13.4455C14.5656 13.0183 13.8721 13.0183 13.4456 13.4455C13.0185 13.8726 13.0185 14.5649 13.4456 14.992L15.9535 17.5L13.4456 20.0079C13.0185 20.4351 13.0185 21.1274 13.4456 21.5545C13.6589 21.7683 13.9389 21.875 14.2189 21.875C14.4989 21.875 14.7789 21.7683 14.9921 21.5545L17.5001 19.0465L20.0081 21.5545C20.2214 21.7683 20.5014 21.875 20.7814 21.875C21.0614 21.875 21.3414 21.7683 21.5547 21.5545C21.9818 21.1274 21.9818 20.4351 21.5547 20.0079L19.0467 17.5L21.5547 14.992C21.9818 14.5649 21.9818 13.8726 21.5547 13.4455V13.4455Z" fill="white"/>
</svg>
