<svg width="80" height="80" viewBox="0 0 80 80" fill="none" xmlns="http://www.w3.org/2000/svg">
<path d="M43.7067 20L53.3333 8.74999L50.73 6.66666L40 19.1667L29.27 6.66666L26.6667 8.74999L36.2933 20H0V73.3333H80V20H43.7067ZM70 66.6667H10V26.6667H70V66.6667ZM54.6867 49.1767C50.6567 52.3633 46.2233 54.3267 40.0033 54.3267C33.7767 54.3267 29.3467 52.3633 25.3133 49.1767L24 50.49C27.0067 55.0767 32.5333 60 40.0033 60C47.47 60 52.9933 55.0767 56 50.49L54.6867 49.1767ZM30.6667 33.3333C28.4567 33.3333 26.6667 35.1233 26.6667 37.3333C26.6667 39.5433 28.4567 41.3333 30.6667 41.3333C32.8733 41.3333 34.6667 39.5433 34.6667 37.3333C34.6667 35.1233 32.8733 33.3333 30.6667 33.3333ZM49.3333 33.3333C47.1267 33.3333 45.3333 35.1233 45.3333 37.3333C45.3333 39.5433 47.1267 41.3333 49.3333 41.3333C51.5433 41.3333 53.3333 39.5433 53.3333 37.3333C53.3333 35.1233 51.5433 33.3333 49.3333 33.3333Z" fill="white"/>
</svg>
