<svg width="25" height="23" viewBox="0 0 25 23" fill="none" xmlns="http://www.w3.org/2000/svg">
<path d="M23.9901 10.6513H1.00986C0.452148 10.6513 0 11.0313 0 11.5C0 11.9687 0.452148 12.3487 1.00986 12.3487H23.9901C24.5479 12.3487 25 11.9687 25 11.5C25 11.0313 24.5479 10.6513 23.9901 10.6513Z" fill="white"/>
<path d="M23.9901 0H1.00986C0.452148 0 0 0.379985 0 0.848688C0 1.31739 0.452148 1.69738 1.00986 1.69738H23.9901C24.5479 1.69738 25 1.31739 25 0.848688C25 0.379985 24.5479 0 23.9901 0Z" fill="white"/>
<path d="M23.9901 21.3026H1.00986C0.452148 21.3026 0 21.6826 0 22.1513C0 22.62 0.452148 23 1.00986 23H23.9901C24.5479 23 25 22.62 25 22.1513C25 21.6826 24.5479 21.3026 23.9901 21.3026Z" fill="white"/>
</svg>
