<svg width="175" height="175" viewBox="0 0 175 175" fill="none" xmlns="http://www.w3.org/2000/svg">
<path d="M128.978 64.2719L127.172 78.548L117.528 154.459C117.252 156.906 115.183 158.756 112.736 158.756H62.2739C59.812 158.756 57.7435 156.906 57.4667 154.459L48.0416 80.1941L46.0167 64.2719H128.978Z" fill="#DD584D"/>
<path d="M70.8374 158.749H65.1103L56.069 64.2756H64.1088L70.8374 158.749Z" fill="white"/>
<path d="M83.8548 158.749H78.1277L74.343 64.2756H82.3828L83.8548 158.749Z" fill="white"/>
<path d="M96.8722 158.749H91.1451L92.6171 64.2756H100.657L96.8722 158.749Z" fill="white"/>
<path d="M109.89 158.749H104.162L110.891 64.2756H118.931L109.89 158.749Z" fill="white"/>
<path d="M140.121 53.796C140.121 49.7875 138.482 46.1639 135.841 43.5514C135.203 37.4538 130.758 32.5031 124.929 31.0817C122.995 25.4031 117.629 21.3124 111.295 21.3124C109.473 21.3124 107.736 21.6649 106.13 22.282C103.516 18.6311 99.2488 16.2436 94.4155 16.2436C89.9093 16.2436 85.8889 18.3139 83.246 21.5525C80.765 19.5308 77.6005 18.3153 74.1503 18.3153C68.0389 18.3153 62.8287 22.1252 60.7324 27.4942C59.1929 27.0655 57.5612 26.8718 55.8758 26.9884C48.1535 27.5228 42.2927 34.0501 42.4803 41.7118C37.9563 44.1429 34.879 48.9176 34.879 54.4132C34.879 59.9342 36.4156 62.5381 40.0107 63.6172C40.0033 63.7795 39.9624 63.9321 39.9624 64.0962C39.9624 70.0069 44.7538 74.7984 50.6645 74.7984C53.3924 74.7984 55.8544 73.7464 57.7444 72.0663C59.6705 74.8942 62.9135 76.7536 66.5931 76.7536C72.0493 76.7536 76.5012 72.6556 77.1617 67.3786C78.7221 68.8253 80.7943 69.7289 83.09 69.7289C84.5062 69.7289 85.8244 69.3605 87.0078 68.7631C88.6006 72.7573 92.4857 75.5884 97.048 75.5884C101.839 75.5884 105.856 72.4548 107.281 68.1413C108.325 68.0417 109.332 67.823 110.298 67.5118C111.589 68.2626 113.07 68.7242 114.67 68.7242C116.478 68.7242 118.157 68.1749 119.552 67.2355C120.816 70.5104 123.973 72.8432 127.694 72.8432C132.525 72.8432 136.441 68.927 136.441 64.0962C136.441 63.6775 136.374 63.2769 136.317 62.874C138.96 61.3855 140.121 58.5773 140.121 53.796Z" fill="#EDEDED"/>
<path opacity="0.15" d="M128.978 64.2719L127.172 78.548C123.676 78.3586 120.762 76.086 119.553 72.9686C118.155 73.9155 116.479 74.4545 114.673 74.4545C113.071 74.4545 111.585 74.0029 110.303 73.2454C109.327 73.5658 108.322 73.7844 107.287 73.8718C105.86 78.1983 101.839 81.3303 97.0465 81.3303C92.4869 81.3303 88.5973 78.4896 87.0095 74.4982C85.8296 75.0955 84.5039 75.4597 83.0909 75.4597C80.7892 75.4597 78.7206 74.5565 77.1619 73.1142C76.5064 78.3876 72.0487 82.4957 66.5859 82.4957C62.9149 82.4957 59.6664 80.6311 57.7435 77.805C55.8497 79.4802 53.3878 80.5291 50.6637 80.5291C49.7605 80.5291 48.8719 80.4125 48.0416 80.1941L46.0167 64.2719H128.978Z" fill="#19282F"/>
<path d="M140.121 53.796C140.121 49.7875 138.482 46.1639 135.841 43.5514C135.203 37.4538 130.758 32.5031 124.929 31.0817C122.995 25.4031 117.629 21.3124 111.295 21.3124C109.473 21.3124 107.736 21.6649 106.13 22.282C103.516 18.6311 99.2488 16.2436 94.4155 16.2436C89.9093 16.2436 85.8889 18.3139 83.246 21.5525C80.765 19.5308 77.6005 18.3153 74.1503 18.3153C68.0389 18.3153 62.8287 22.1252 60.7324 27.4942C59.1929 27.0655 57.5612 26.8718 55.8758 26.9884C48.1535 27.5228 42.2927 34.0501 42.4803 41.7118C37.9563 44.1429 34.879 48.9176 34.879 54.4132C34.879 59.9342 36.4156 62.5381 40.0107 63.6172C40.0033 63.7795 39.9624 63.9321 39.9624 64.0962C39.9624 70.0069 44.7538 74.7984 50.6645 74.7984C53.3924 74.7984 55.8544 73.7464 57.7444 72.0663C59.6705 74.8942 62.9135 76.7536 66.5931 76.7536C72.0493 76.7536 76.5012 72.6556 77.1617 67.3786C78.722 68.8253 80.7943 69.7289 83.09 69.7289C84.5062 69.7289 85.8244 69.3605 87.0078 68.7631C88.6006 72.7573 92.4857 75.5884 97.048 75.5884C101.839 75.5884 105.856 72.4548 107.281 68.1413C108.325 68.0417 109.332 67.823 110.298 67.5118C111.589 68.2626 113.07 68.7242 114.67 68.7242C116.478 68.7242 118.157 68.1749 119.552 67.2355C120.816 70.5104 123.973 72.8432 127.694 72.8432C132.525 72.8432 136.441 68.927 136.441 64.0962C136.441 63.6775 136.374 63.2769 136.317 62.874C138.96 61.3855 140.121 58.5773 140.121 53.796Z" fill="#FBE596"/>
<path d="M113.056 42.9053C113.255 42.2078 113.355 41.4904 113.355 40.7331C113.355 36.3486 109.808 32.8012 105.423 32.8012C102.852 32.8012 100.56 34.0169 99.1254 35.9102C100.082 32.6018 103.131 30.1903 106.738 30.1903C111.123 30.1903 114.67 33.7378 114.67 38.1223C114.67 39.9159 114.072 41.59 113.056 42.9053Z" fill="white"/>
<path d="M91.5646 40.4093C91.0871 40.0116 90.5593 39.6852 89.9658 39.423C86.5299 37.9051 82.5218 39.457 81.0039 42.893C80.1138 44.9077 80.273 47.1246 81.26 48.9045C78.9986 47.0096 78.1644 43.7851 79.4132 40.9582C80.9311 37.5223 84.9393 35.9705 88.3752 37.4884C89.7808 38.1093 90.8858 39.1574 91.5646 40.4093Z" fill="white"/>
<path d="M75.5975 61.9739C75.1963 61.6398 74.7529 61.3655 74.2543 61.1453C71.3675 59.87 68 61.1739 66.7248 64.0606C65.977 65.7533 66.1107 67.6159 66.94 69.1113C65.04 67.5192 64.3391 64.8102 65.3884 62.4352C66.6636 59.5484 70.0311 58.2446 72.9179 59.5199C74.0988 60.0416 75.0272 60.9222 75.5975 61.9739Z" fill="white"/>
<path d="M118.352 57.0763C118.866 57.1665 119.388 57.1838 119.931 57.1267C123.073 56.7958 125.347 53.986 125.016 50.8441C124.822 49.0018 123.778 47.4511 122.313 46.5657C124.756 47.0016 126.714 49.0048 126.987 51.5897C127.317 54.7317 125.043 57.5414 121.901 57.8722C120.616 58.0075 119.371 57.7054 118.352 57.0763Z" fill="white"/>
<path d="M98.5681 50.0806C98.5742 50.6033 98.6533 51.1192 98.8094 51.6421C99.713 54.6694 102.894 56.3876 105.921 55.4839C107.696 54.954 109.028 53.6423 109.628 52.0393C109.65 54.5207 108.041 56.8143 105.551 57.5577C102.523 58.4614 99.343 56.7432 98.4393 53.7158C98.0696 52.4774 98.1374 51.1983 98.5681 50.0806Z" fill="white"/>
<path d="M85.0803 54.2242C84.8856 54.7093 84.7608 55.2161 84.7045 55.7589C84.3785 58.9014 86.6574 61.7076 89.7999 62.0336C91.6424 62.2247 93.3755 61.5238 94.5447 60.2735C93.6131 62.5735 91.2483 64.0752 88.663 63.807C85.5205 63.4811 83.2418 60.6748 83.5677 57.5323C83.7011 56.2468 84.254 55.0914 85.0803 54.2242Z" fill="white"/>
<path d="M51.8153 46.3787C51.4051 46.9086 51.0736 47.4899 50.8139 48.1396C49.3104 51.9007 51.1371 56.1602 54.8982 57.6638C57.1036 58.5454 59.4865 58.2885 61.3666 57.1564C59.4116 59.6663 55.9689 60.6893 52.8745 59.4524C49.1134 57.9488 47.2868 53.6893 48.7904 49.9281C49.4054 48.3895 50.4924 47.1584 51.8153 46.3787Z" fill="white"/>
<path d="M67.4715 36.5768C66.9489 36.5876 66.4337 36.6713 65.9122 36.832C62.8931 37.7626 61.2033 40.9584 62.1339 43.9775C62.6796 45.7478 64.0032 47.068 65.6115 47.6542C63.1303 47.6977 60.8225 46.1098 60.0569 43.6259C59.1263 40.6067 60.8161 37.4111 63.8353 36.4804C65.0703 36.0997 66.35 36.1561 67.4715 36.5768Z" fill="white"/>
<path d="M86.0492 32.3362C85.8783 31.8422 85.6404 31.3777 85.3271 30.9308C83.5136 28.3438 79.9532 27.7181 77.3662 29.5316C75.8493 30.595 74.9998 32.2603 74.9363 33.9709C74.1323 31.6232 74.9341 28.9391 77.0624 27.447C79.6494 25.6335 83.2098 26.2594 85.0233 28.8464C85.7652 29.9046 86.1049 31.1397 86.0492 32.3362Z" fill="white"/>
</svg>
