<svg width="25" height="27" viewBox="0 0 25 27" fill="none" xmlns="http://www.w3.org/2000/svg">
<g clip-path="url(#clip0)">
<path d="M16.9828 6.54308C20.0862 7.50859 22.2328 9.72411 22.4655 13.4051C22.6121 15.7586 21.8448 17.7845 20.5172 19.3534C20.9224 19.4138 21.3276 19.4827 21.7241 19.5431C23.4224 17.4655 24.3966 14.8362 24.3966 12.0172C24.3966 5.58618 19.1724 0.551697 12.5 0.551697C5.82759 0.551697 0.603455 5.58618 0.603455 12.0172C0.603455 14.8448 1.58621 17.4741 3.27587 19.5517C3.63794 19.4914 4.00863 19.431 4.37932 19.3793C3.33621 18.1034 2.65518 16.5172 2.54311 14.6551C2.33621 11.4051 3.44828 8.37066 7.75001 6.83618L16.9828 6.54308Z" fill="#FFD700"/>
<path d="M3.28444 19.5431C1.58616 17.4741 0.612027 14.8362 0.612027 12.0086C0.612027 5.57759 5.83617 0.543104 12.5086 0.543104C19.181 0.543104 24.4051 5.57759 24.4051 12.0086C24.4051 14.8276 23.4224 17.4655 21.7327 19.5345C21.931 19.569 22.1379 19.5948 22.3362 19.6293C23.9741 17.5259 24.9482 14.8793 24.9482 12.0086C24.9396 5.13793 19.3706 0 12.5 0C5.62927 0 0.0603027 5.13793 0.0603027 12.0172C0.0603027 14.8966 1.04306 17.5345 2.68099 19.6466C2.87927 19.6035 3.07754 19.5776 3.28444 19.5431Z" fill="#FA6E0F"/>
<path d="M19.4224 24.612C20.7844 24.6983 21.9137 25.3707 22.6034 26.2758C22.6206 26.3017 22.6551 26.3017 22.6637 26.2758C22.8965 25.3276 22.9655 24.3189 22.8448 23.3103C22.8448 23.3017 22.8534 23.2931 22.8706 23.2931C23.5086 23.0948 24.2155 22.9827 24.9655 22.9914C25.0086 23 25.0086 22.9569 24.9655 22.9138C24.1724 22.1465 23.1982 21.5431 22.1293 21.1552C21.7586 22.1983 21.3965 23.2414 21.0431 24.2845C21.0344 24.3017 21.0086 24.3189 20.9827 24.3103L19.4224 24.612Z" fill="#0AC855"/>
<path d="M20.9741 24.3103L19.4224 24.6121C19.4224 24.6121 19.4396 24.4741 19.4999 24.0776C20.3017 24.1896 20.9741 24.3103 20.9741 24.3103Z" fill="#0B4902"/>
<path d="M20.5173 19.3448C21.8448 17.7759 22.6121 15.75 22.4655 13.3965C22.2328 9.71552 20.0862 7.50862 16.9828 6.53448L7.75001 6.83621C3.44829 8.36207 2.34484 11.4052 2.54312 14.6465C2.66381 16.5172 3.34484 18.0948 4.38794 19.3707L20.5173 19.3448Z" fill="#FA3200"/>
<path d="M14.0689 5.94828C14.7931 5.87931 16.3879 5.92242 17.1638 6.68104C17.2069 6.72414 17.1724 6.83621 17.1034 6.81035C15.9655 6.5 14.1983 8.00863 13.0431 7.03449C13.0086 7.31897 12.75 8.69828 10.7931 8.49138C10.75 8.48276 10.7241 8.43966 10.7586 8.40518C11.0603 8.14656 11.4396 7.43104 11.112 6.97414C10.112 7.63794 9.5948 7.6638 7.7586 6.87069C7.69825 6.84483 7.73273 6.75 7.8017 6.73276C8.18101 6.64656 9.0948 6.31897 9.90515 6.1638C10.0603 6.13794 10.2155 6.12069 10.362 6.11207C9.51722 5.9138 9.14653 5.73276 8.5948 5.74138C8.53446 5.74138 8.49998 5.6638 8.54308 5.62069C9.41377 4.78449 10.9914 4.74138 11.75 5.36207L11.0689 3.93966L11.8965 3.81897C11.8965 3.81897 12.112 4.57759 12.3017 5.25863C13.1638 4.31035 14.5 4.4138 14.9482 5.23276C14.9741 5.28449 14.931 5.33621 14.8793 5.32759C14.4396 5.25862 14.1293 5.62931 14.0689 5.94828Z" fill="#00912D"/>
<path d="M4.06031 24.3103C4.03445 24.319 3.99997 24.3017 3.99997 24.2845C3.64652 23.2414 3.28445 22.1897 2.91376 21.1465C1.8448 21.5259 0.879279 22.1379 0.0775546 22.9052C0.0344512 22.9483 0.0344512 22.9828 0.0775546 22.9828C0.827555 22.9741 1.53445 23.0776 2.17238 23.2845C2.18962 23.2845 2.19824 23.2931 2.19824 23.3017C2.07755 24.319 2.14652 25.3276 2.37928 26.2672C2.3879 26.2931 2.42238 26.2931 2.43962 26.2672C3.12066 25.3535 4.25859 24.6897 5.62066 24.6035L4.06031 24.3103Z" fill="#0AC855"/>
<path d="M20.9741 24.3104C15.3966 23.3362 9.63793 23.3362 4.06035 24.3104C4.03448 24.319 4 24.3017 4 24.2845C3.48276 22.7586 2.94828 21.2414 2.40517 19.7328C2.39655 19.7155 2.42242 19.6897 2.4569 19.681C9.08621 18.4655 15.9569 18.4655 22.5948 19.681C22.6293 19.6897 22.6552 19.7069 22.6466 19.7328C22.0948 21.25 21.569 22.7673 21.0517 24.2845C21.0345 24.3017 21.0086 24.319 20.9741 24.3104Z" fill="#00912D"/>
<path d="M4.06036 24.3103L5.61209 24.6121C5.61209 24.6121 5.59485 24.4741 5.5345 24.0776C4.73278 24.1896 4.06036 24.3103 4.06036 24.3103Z" fill="#0B4902"/>
</g>
<defs>
<clipPath id="clip0">
<rect width="25" height="26.2931" fill="white"/>
</clipPath>
</defs>
</svg>
